<?xml version="1.0" encoding="UTF-8" standalone="no"?>
<!-- Created with Inkscape (http://www.inkscape.org/) -->

<svg
   xmlns:dc="http://purl.org/dc/elements/1.1/"
   xmlns:cc="http://creativecommons.org/ns#"
   xmlns:rdf="http://www.w3.org/1999/02/22-rdf-syntax-ns#"
   xmlns:svg="http://www.w3.org/2000/svg"
   xmlns="http://www.w3.org/2000/svg"
   xmlns:xlink="http://www.w3.org/1999/xlink"
   version="1.1"
   width="600"
   height="600"
   id="svg3904">
  <defs
     id="defs3906">
    <radialGradient
       cx="48.666"
       cy="3.6665001"
       r="19.597601"
       id="XMLID_9_"
       gradientUnits="userSpaceOnUse"
       gradientTransform="translate(541.25634,397.34697)">
      <stop
         id="stop18450"
         style="stop-color:#cccccc;stop-opacity:1"
         offset="0" />
      <stop
         id="stop18452"
         style="stop-color:#ededed;stop-opacity:1"
         offset="0.73890001" />
      <stop
         id="stop18454"
         style="stop-color:#fafafa;stop-opacity:1"
         offset="1" />
    </radialGradient>
    <radialGradient
       cx="48.666"
       cy="3.6665001"
       r="19.597601"
       id="radialGradient3983"
       xlink:href="#XMLID_9_"
       gradientUnits="userSpaceOnUse"
       gradientTransform="translate(541.25634,397.34697)" />
  </defs>
  <metadata
     id="metadata3909">
    <rdf:RDF>
      <cc:Work
         rdf:about="">
        <dc:format>image/svg+xml</dc:format>
        <dc:type
           rdf:resource="http://purl.org/dc/dcmitype/StillImage" />
        <dc:title></dc:title>
      </cc:Work>
    </rdf:RDF>
  </metadata>
  <g
     transform="translate(0,-452.36218)"
     id="layer1">
    <path
       d="M 299.69318,475.6231 C 182.01907,475.6231 100,517.48809 100,555.06444 c 0,1.77734 0.30364,3.58723 0.66564,5.37884 l 52.50267,444.62312 c 0,-27.58729 60.21566,-58.33982 146.60807,-58.33982 86.40258,0 146.60808,30.75068 146.60808,58.33982 l 52.33625,-443.96111 c 0.45344,-2.00798 0.66565,-4.05005 0.66565,-6.04085 0,-37.57881 -82.00523,-79.44134 -199.69318,-79.44134 z"
       id="path223-5-5"
       style="fill:#000000" />
    <path
       d="m 300.30682,475.70585 c -117.58904,0 -199.57463,41.80324 -199.69318,79.35859 l 13.31288,0 c 0.11876,-35.05022 76.63644,-74.06248 186.3803,-74.06248 109.75696,0 186.26155,39.00998 186.3803,74.06248 l 13.31288,0 c -0.11849,-37.55781 -82.09041,-79.35859 -199.69318,-79.35859 z"
       id="path223-5-5-2-1-4"
       style="fill:#ffffff" />
    <g
       transform="matrix(4.1359679,0,0,4.1133948,-2135.2213,-1188.0758)"
       id="g18680">
      <path
         d="m 628.80534,443.04897 -19.282,-37.084 c -2.199,-4.212 -16.24,-8.096 -19.994,-6.139 l 0,0 c -2.733,1.424 -32.972,17.68 -33.278,17.844 -0.481,0.259 -0.666,0.856 -0.414,1.342 l 12.637,24.335"
         id="path18393"
         style="fill:#ffffff;stroke:#000000;stroke-opacity:1" />
      <path
         d="m 597.10834,409.51797 c 0,0 -6.904,-8.939 -7.117,-8.805 3.213,3.47 6.719,10.105 6.719,10.105 0,0 7.394,-3.668 11.927,-4.391 -0.118,-0.19 -11.529,3.091 -11.529,3.091 z"
         id="path18456"
         style="fill:url(#radialGradient3983);stroke:#000000;stroke-opacity:1" />
    </g>
    <path
       d="m 100.30682,548.27883 52.60576,445.53898 c 0,27.68739 60.42982,58.54719 147.12903,58.54719 86.71008,0 147.12944,-30.8598 147.12944,-58.54719 l 52.52213,-445.53898 c -8.13476,36.02293 -87.88551,73.66136 -199.73493,73.66136 -111.82072,0 -191.49809,-37.64293 -199.65143,-73.66136 z"
       id="rect6467-1"
       style="fill:#000000;fill-opacity:1;fill-rule:nonzero;stroke:none" />
    <path
       d="m 100.61364,555.0646 c 0,0.0273 0,0.0556 0,0.0826 0,37.57884 82.01905,79.44132 199.69318,79.44132 C 417.9948,634.58852 500,592.72604 500,555.1472 c 0,-0.0273 0,-0.0556 0,-0.0826 l -13.31288,0 c 0,0.0273 0,0.0556 0,0.0826 0,35.07358 -76.53813,74.14523 -186.3803,74.14523 -109.82912,0 -186.3803,-39.07165 -186.3803,-74.14523 0,-0.0273 0,-0.0556 0,-0.0826 l -13.31288,0 z"
       id="path223-5-5-2-1-4-7"
       style="fill:#ffffff" />
    <g
       transform="matrix(3.7845933,0,0,3.763938,-2301.1805,-1369.5105)"
       id="g18872">
      <path
         d="m 668.4753,595.33595 c -0.86,-1.304 -5.883,-10.495 -6.915,-12.062 -1.034,-1.564 -0.712,-3.8 -0.152,-4.769 l 3.572,-6.037 -2.604,-1.436 11.374,-1.537 4.459,10.454 -2.557,-1.534 -6.808,11.809 c -0.837,1.453 -1.35,3.738 -0.369,5.112 z"
         id="path18351-4"
         style="fill:#ffffff" />
      <path
         d="m 672.4843,586.22895 -2.938,5.095 c -0.701,1.215 -1.162,3.007 -0.724,4.366 0.892,1.25 2.33,2.727 4.385,2.769 h 13.315 v -12.23 h -14.038 z"
         id="path18353-1"
         style="fill:#ffffff" />
      <path
         d="m 712.8013,583.99995 c -0.699,1.397 -6.149,10.342 -6.988,12.018 -0.838,1.678 -2.935,2.517 -4.053,2.517 l -6.687,-0.069 v 3.235 l -7.29,-9.351 7.29,-9.35 v 3.235 h 13.114 c 1.679,0 3.915,-0.698 4.614,-2.235 z"
         id="path18355-1"
         style="fill:#ffffff" />
      <path
         d="m 680.8213,551.27895 c 1.56,-0.093 12.031,0.156 13.902,0.043 1.872,-0.112 3.646,1.284 4.205,2.253 l 3.532,6.108 2.666,-1.566 -4.565,10.652 -11.436,-1.402 2.661,-1.486 -6.723,-11.725 c -0.838,-1.452 -2.561,-3.04 -4.242,-2.877 z"
         id="path18357-9"
         style="fill:#ffffff" />
      <path
         d="m 680.3283,551.55695 c -1.54,0.133 -3.605,0.622 -4.695,2.422 l -6.541,11.369 10.59,6.115 7.011,-12.185 -2.794,-4.873 c -0.728,-1.257 -2.118,-2.613 -3.571,-2.848 z"
         id="path18359-5"
         style="fill:#ffffff" />
      <path
         d="m 709.2883,585.17195 c 1.152,0 2.457,-0.538 3.457,-1.241 l 0.057,-0.098 c 0.699,-1.397 1.475,-3.601 0.389,-5.574 l -6.709,-11.452 -10.59,6.114 7.152,12.251 h 6.244 z"
         id="path18361-4"
         style="fill:#ffffff" />
    </g>
    <g
       transform="matrix(0.50496501,0,0,0.50496501,541.13063,227.43611)"
       id="g3985">
      <g
         transform="translate(-1051.3144,1306.869)"
         id="g4087">
        <path
           d="m 842.15189,325.30545 c -105.0482,-9.5711 -201.93991,-81.44869 -243.71811,-180.79863 -60.1633,-143.070317 4.7816,-314.62131 144.54991,-381.82706 98.23849,-47.23663 213.00861,-38.22621 299.29711,23.49732 52.9654,37.88691 92.5885,91.29963 114.2593,154.023673 9.9946,28.92813 11.1867,38.05692 11.3451,86.87313 0.1499,46.207877 -1.2698,59.181757 -9.2855,84.852817 -19.7422,63.22565 -56.427,116.98213 -104.2961,152.8309 -64.37652,48.21105 -132.90271,67.76835 -212.15171,60.54785 z"
           id="path4749-9"
           style="fill:#ffffff;fill-opacity:1;fill-rule:nonzero;stroke:none" />
        <path
           d="m 1141.9374,29.710849 a 270,269.99977 0 1 1 -539.99973,0 270,269.99977 0 1 1 539.99973,0 z"
           id="path1650"
           style="fill:#8c0000;fill-opacity:1;fill-rule:nonzero;stroke:none" />
        <g
           transform="matrix(1.1483166,0,0,1.1483166,1143.8465,33.184623)"
           id="g5259">
          <path
             d="m -277.02124,-159.06637 c -1.8045,0 -3.31,2.46207 -3.31,5.41656 l 15.0236,203.749497 c 0,2.95449 1.504,5.41655 3.31,5.41655 0,0 11.8631,0.16791 21.6437,0 3.2211,-0.055 4.2074,0.28642 7.1294,0 9.7805,0.16791 21.6436,0 21.6436,0 1.806,0 3.3101,-2.46206 3.3101,-5.41655 l 15.0236,-203.749497 c 0,-2.95449 -1.5055,-5.00034 -3.3101,-5.00034 l -36.4133,0 c -0.134,-0.0267 -0.1156,-0.41622 -0.2539,-0.41622 l -43.7967,0 z"
             id="rect1872"
             style="fill:#ffffff;fill-opacity:1;fill-rule:nonzero;stroke:none" />
          <path
             d="m -203.66364,120.51619 a 32.49995,32.499977 0 0 1 -64.9999,0 32.49995,32.499977 0 1 1 64.9999,0 z"
             id="path2062"
             style="fill:#ffffff;fill-opacity:1;fill-rule:nonzero;stroke:none" />
        </g>
        <path
           d="m 842.15189,325.30547 c -105.0482,-9.5711 -201.9399,-81.44871 -243.7181,-180.79866 -60.1633,-143.0703193 4.7816,-314.62132 144.5499,-381.82707 98.2385,-47.23663 213.0086,-38.22621 299.29711,23.49732 52.9654,37.88691 92.5885,91.29963 114.2593,154.023691 9.9946,28.92812 11.1867,38.05691 11.3451,86.87312 0.1499,46.20787 -1.2698,59.18177 -9.2855,84.852809 -19.7422,63.22565 -56.427,116.98213 -104.2961,152.83091 -64.37651,48.21108 -132.90271,67.76838 -212.15171,60.54788 z m 97.0001,-22.0361 c 47.4648,-9.9144 89.75941,-33.98367 130.25601,-74.12693 54.9143,-54.43539 79.6242,-108.86972 83.4728,-183.885829 5.9176,-115.34347 -52.6575,-216.318591 -154.52421,-266.377751 -82.7329,-40.65648 -169.1334,-40.89916 -250.5178,-0.70366 -116.2247,57.40303 -176.9998,185.443031 -149.5406,315.050101 11.8988,56.162199 49.2146,116.506039 95.5602,154.531499 68.035,55.82107 152.4055,74.91507 245.2936,55.51257 l 0,0 z"
           id="path4749"
           style="fill:#3c0000;fill-opacity:1;fill-rule:nonzero;stroke:none" />
      </g>
    </g>
  </g>
</svg>
